<?xml version="1.0" standalone="no"?>
<!DOCTYPE svg PUBLIC "-//W3C//DTD SVG 20010904//EN"
 "http://www.w3.org/TR/2001/REC-SVG-20010904/DTD/svg10.dtd">
<svg version="1.0" xmlns="http://www.w3.org/2000/svg"
 width="3840.000000pt" height="2160.000000pt" viewBox="0 0 3840.000000 2160.000000"
 preserveAspectRatio="xMidYMid meet">

<g transform="translate(0.000000,2160.000000) scale(0.100000,-0.100000)"
fill="#000000" stroke="none">
<path d="M0 10800 l0 -10800 19200 0 19200 0 0 10800 0 10800 -19200 0 -19200
0 0 -10800z m19525 7250 c1035 -70 1976 -418 2793 -1034 446 -336 841 -752
1164 -1226 436 -639 730 -1400 837 -2170 37 -269 45 -400 45 -725 0 -395 -24
-660 -90 -995 -202 -1017 -684 -1920 -1419 -2656 -583 -584 -1279 -1011 -2060
-1264 -823 -266 -1738 -321 -2585 -154 -1436 283 -2685 1163 -3442 2424 -819
1366 -954 3079 -359 4563 415 1036 1169 1925 2118 2498 740 447 1521 688 2408
742 123 8 453 6 590 -3z m-5413 -10857 c17 -15 18 -38 18 -321 0 -270 -2 -308
-17 -324 -14 -16 -33 -18 -163 -18 -129 0 -149 2 -163 18 -13 15 -17 47 -19
172 l-3 155 -427 3 -428 2 0 -255 0 -255 392 0 c350 0 393 -2 410 -17 16 -14
18 -33 18 -146 0 -107 -3 -134 -17 -149 -15 -17 -41 -18 -410 -18 l-393 0 0
-285 0 -285 428 2 427 3 3 160 c3 213 -3 205 181 205 125 0 136 -2 158 -22
l23 -21 0 -310 c0 -275 -2 -313 -17 -329 -15 -17 -58 -18 -946 -18 l-931 0
-23 22 c-22 20 -23 29 -23 142 0 109 2 122 22 143 20 22 29 23 145 23 l123 0
0 705 0 705 -122 0 c-111 0 -124 2 -145 22 -22 20 -23 29 -23 142 0 109 2 122
22 143 l21 23 930 0 c852 0 932 -1 949 -17z m3775 -5 l23 -21 0 -349 0 -348
49 35 c130 93 290 140 476 139 326 -2 589 -157 715 -419 51 -107 70 -198 70
-338 0 -186 -48 -333 -155 -472 -110 -143 -251 -233 -434 -277 -119 -28 -350
-22 -456 12 -73 23 -190 79 -237 112 l-28 19 0 -47 c0 -35 -6 -54 -22 -71
l-21 -23 -290 0 c-256 0 -293 2 -309 17 -16 14 -18 33 -18 141 0 115 2 128 22
149 20 21 29 23 135 23 l113 0 0 705 0 705 -112 0 c-101 0 -114 2 -135 22 -22
20 -23 29 -23 146 0 103 3 129 17 144 15 17 38 18 306 18 285 0 291 0 314 -22z
m3868 -548 c230 -26 395 -119 463 -262 37 -79 42 -147 42 -535 l0 -373 107 0
c96 0 109 -2 130 -22 22 -20 23 -29 23 -146 0 -103 -3 -129 -17 -144 -15 -17
-37 -18 -286 -18 -264 0 -271 1 -294 22 -15 14 -23 33 -23 55 0 18 -2 33 -4
33 -3 0 -31 -15 -63 -34 -106 -63 -201 -89 -348 -94 -152 -5 -220 9 -328 65
-126 66 -208 157 -247 274 -18 52 -21 81 -18 155 3 81 8 100 41 167 64 129
197 232 362 278 153 44 380 26 531 -41 l46 -20 -4 98 c-4 111 -15 137 -76 177
-86 56 -250 70 -366 29 -47 -16 -131 -86 -152 -126 -9 -16 -21 -15 -164 19
-85 19 -160 40 -167 45 -27 22 -25 66 5 110 38 55 123 134 188 176 148 94 389
137 619 112z m1935 -16 c36 -9 93 -29 128 -45 35 -16 62 -23 62 -17 0 6 7 20
17 30 14 16 33 18 156 18 202 0 187 24 187 -304 0 -332 17 -306 -201 -306
l-157 0 -7 42 c-24 138 -129 232 -291 259 -180 29 -365 -57 -437 -204 -110
-225 -20 -530 183 -621 154 -69 365 -48 493 49 45 35 101 104 131 162 l16 31
142 -60 c146 -62 154 -67 164 -106 14 -52 -141 -244 -260 -322 -135 -87 -299
-130 -501 -130 -275 0 -492 91 -642 270 -153 182 -219 412 -184 637 52 322
325 578 676 633 79 12 243 4 325 -16z m1847 1 c255 -59 481 -227 578 -430 52
-108 74 -190 82 -308 10 -141 81 -127 -658 -127 l-628 0 15 -42 c70 -198 267
-312 511 -295 154 11 286 72 391 179 l53 55 147 -57 c140 -56 146 -59 158 -94
l13 -35 -71 -76 c-180 -193 -440 -295 -749 -295 -412 0 -759 214 -866 534 -25
74 -27 94 -27 236 0 142 2 162 27 236 90 271 376 491 692 533 87 12 249 5 332
-14z m-9916 -11 c80 -18 172 -74 215 -132 15 -20 29 -39 30 -41 2 -2 43 20 92
49 212 122 412 164 593 126 83 -18 138 -46 196 -99 113 -104 123 -158 123
-663 l0 -384 112 0 c101 0 114 -2 135 -22 22 -20 23 -29 23 -146 0 -103 -3
-129 -17 -144 -15 -17 -38 -18 -311 -18 -261 0 -298 2 -314 17 -17 15 -18 44
-18 512 0 273 -5 514 -10 536 -30 131 -236 122 -467 -22 l-73 -44 0 -335 0
-334 112 0 c101 0 114 -2 135 -22 22 -20 23 -29 23 -146 0 -103 -3 -129 -17
-144 -15 -17 -38 -18 -308 -18 -290 0 -292 0 -313 23 -21 22 -21 27 -24 532
-3 493 -4 511 -23 545 -55 93 -226 71 -450 -58 l-70 -40 -3 -336 -2 -336 117
0 c106 0 119 -2 140 -22 22 -20 23 -29 23 -142 0 -109 -2 -122 -22 -143 l-21
-23 -430 0 c-387 0 -432 2 -449 17 -16 14 -18 33 -18 146 0 172 -4 167 152
167 l118 0 0 405 0 405 -107 0 c-96 0 -109 2 -130 22 -21 20 -23 29 -23 138 0
104 2 120 21 144 l20 26 286 0 c330 0 323 2 323 -82 0 -26 2 -48 4 -48 3 0 44
20 93 44 193 97 370 127 534 90z m5131 -1 c16 -14 18 -33 18 -163 0 -127 -2
-149 -17 -162 -13 -11 -53 -17 -148 -22 -207 -10 -307 -39 -366 -103 -71 -76
-89 -159 -96 -455 l-6 -238 148 0 c198 0 195 3 195 -164 0 -109 -2 -122 -22
-143 l-21 -23 -480 0 c-433 0 -482 2 -499 17 -16 14 -18 33 -18 141 0 174 -2
172 177 172 l133 0 0 405 0 405 -137 0 c-180 0 -173 -6 -173 158 0 185 -24
172 319 172 268 0 275 -1 298 -22 20 -19 23 -31 23 -96 l0 -74 41 41 c119 123
248 167 503 170 89 1 113 -2 128 -16z m-1042 -2010 c39 -27 49 -45 50 -89 0
-101 -117 -147 -200 -78 -55 47 -46 134 18 168 37 20 102 20 132 -1z m-5321
-7 c8 -9 11 -65 9 -177 l-3 -164 -90 0 -90 0 -3 88 -3 87 -224 0 -225 0 0
-130 0 -130 208 0 c148 0 211 -3 220 -12 15 -15 16 -122 2 -149 -10 -18 -23
-19 -220 -19 l-210 0 0 -145 0 -145 225 0 225 0 0 84 c0 60 4 87 14 95 9 8 43
11 93 9 l78 -3 3 -169 c2 -116 -1 -173 -9 -182 -16 -19 -968 -21 -987 -2 -7 7
-12 40 -12 78 0 38 5 71 12 78 7 7 39 12 75 12 l63 0 0 365 0 365 -63 0 c-36
0 -68 5 -75 12 -7 7 -12 40 -12 78 0 38 5 71 12 78 19 19 971 17 987 -2z
m1442 -76 c17 -10 19 -22 19 -120 l0 -109 68 -3 67 -3 0 -80 0 -80 -67 -3 -68
-3 0 -209 c0 -235 -2 -228 75 -210 57 13 65 2 65 -90 l0 -78 -71 -13 c-119
-21 -216 11 -257 84 -14 27 -17 67 -20 275 l-3 242 -43 0 c-23 0 -47 5 -54 12
-7 7 -12 39 -12 73 0 34 5 66 12 73 7 7 31 12 55 12 l43 0 0 53 0 52 83 67
c45 37 83 67 85 68 2 0 12 -5 23 -10z m2366 2 c8 -5 13 -45 15 -117 l3 -110
70 -5 70 -5 0 -80 0 -80 -72 -3 -73 -3 0 -157 c0 -195 7 -260 29 -266 9 -3 34
-1 56 4 57 13 65 2 65 -90 l0 -78 -66 -12 c-113 -21 -202 3 -252 68 l-27 35
-3 249 -3 248 -43 0 c-23 0 -47 5 -54 12 -7 7 -12 39 -12 73 0 34 5 66 12 73
7 7 31 12 55 12 l43 0 0 53 0 52 83 67 c89 73 86 71 104 60z m6673 -122 l0
-109 73 -3 72 -3 3 -68 c4 -89 -3 -97 -84 -97 l-64 0 0 -204 c0 -234 0 -234
73 -218 68 14 77 5 77 -84 0 -72 -1 -75 -27 -86 -16 -6 -66 -11 -113 -12 -72
-1 -91 3 -125 22 -84 49 -94 93 -95 389 l0 192 -47 3 -48 3 0 80 0 80 48 3 47
3 0 49 0 49 86 70 c72 60 88 69 105 61 17 -10 19 -22 19 -120z m-8117 -133
c97 -45 168 -112 207 -191 35 -72 57 -191 39 -212 -9 -11 -71 -14 -340 -14
l-329 0 12 -27 c23 -54 60 -94 111 -120 107 -54 263 -27 348 60 l34 35 80 -32
c52 -21 81 -38 83 -50 10 -48 -113 -143 -237 -184 -105 -35 -265 -36 -361 -3
-166 58 -266 168 -291 322 -26 160 58 320 211 403 83 45 133 56 251 53 98 -3
112 -6 182 -40z m2282 22 c90 -27 148 -84 164 -158 6 -29 11 -137 11 -241 l0
-190 60 0 c70 0 80 -11 80 -91 0 -85 -8 -89 -170 -89 -140 0 -160 5 -160 42 0
22 -1 22 -42 -2 -18 -10 -62 -27 -98 -36 -226 -58 -434 107 -381 302 15 57 80
127 148 160 77 38 200 45 291 16 l62 -20 0 47 c0 26 -7 56 -15 68 -20 28 -75
46 -141 45 -59 0 -85 -11 -131 -55 -35 -33 -26 -33 -165 4 -55 14 -52 46 10
107 80 81 164 110 313 111 71 1 115 -5 164 -20z m4076 1 c180 -56 298 -201
302 -370 l2 -65 -334 -3 c-298 -2 -332 -4 -327 -18 3 -9 6 -20 6 -25 0 -15 72
-89 102 -105 109 -57 274 -28 361 64 l28 30 79 -32 c103 -41 107 -54 34 -124
-165 -160 -468 -185 -670 -54 -71 46 -108 88 -143 162 -23 48 -26 68 -26 160
0 95 3 110 28 160 51 100 153 185 265 221 79 25 211 25 293 -1z m-7867 -19
c20 -13 49 -42 64 -64 l27 -40 3 -234 4 -233 57 0 c31 0 62 -5 69 -12 7 -7 12
-40 12 -80 0 -56 -3 -69 -19 -78 -28 -15 -294 -13 -309 2 -9 9 -12 79 -12 252
0 236 -7 307 -30 330 -22 22 -107 9 -185 -28 l-75 -35 0 -176 0 -175 58 0 c32
0 63 -5 70 -12 16 -16 16 -140 0 -156 -9 -9 -74 -12 -229 -12 -184 0 -220 2
-233 16 -19 19 -22 134 -4 152 7 7 38 12 70 12 l58 0 0 210 0 210 -58 0 c-32
0 -63 5 -70 12 -17 17 -16 133 2 147 9 8 64 11 172 9 l159 -3 3 -27 c2 -16 5
-28 8 -28 3 0 24 10 47 22 76 39 118 48 212 45 75 -2 98 -7 129 -26z m2554
-54 c2 -50 -1 -84 -9 -93 -8 -9 -33 -14 -78 -14 -87 0 -164 -23 -190 -56 -31
-39 -40 -85 -48 -226 l-6 -128 79 0 c49 0 85 -5 92 -12 16 -16 16 -140 0 -156
-9 -9 -80 -12 -257 -12 -285 0 -281 -1 -281 87 0 86 8 93 95 93 l75 0 0 210 0
210 -73 0 c-43 0 -78 5 -85 12 -17 17 -16 133 2 147 9 8 63 11 167 9 l154 -3
3 -43 3 -43 42 36 c57 49 113 64 222 62 l90 -2 3 -78z m2904 48 c25 -18 52
-49 66 -75 21 -42 22 -56 22 -267 l0 -223 58 0 c32 0 63 -5 70 -12 7 -7 12
-40 12 -78 0 -38 -5 -71 -12 -78 -17 -17 -302 -17 -316 1 -7 8 -12 112 -14
284 -3 315 -2 309 -90 306 -36 -1 -72 -12 -124 -38 l-74 -36 0 -175 0 -174 58
0 c32 0 63 -5 70 -12 16 -16 16 -140 0 -156 -9 -9 -73 -12 -227 -12 -252 0
-251 0 -251 87 0 83 9 93 85 93 l65 0 0 210 0 210 -63 0 c-36 0 -68 5 -75 12
-17 17 -16 133 2 147 9 8 64 11 172 9 l159 -3 3 -27 c4 -33 4 -33 44 -12 81
42 132 53 225 51 84 -2 95 -5 135 -32z m986 19 c20 -8 51 -29 69 -46 l32 -31
43 26 c178 104 383 87 448 -38 24 -48 25 -56 28 -272 l4 -223 57 0 c31 0 62
-5 69 -12 7 -7 12 -40 12 -78 0 -38 -5 -71 -12 -78 -17 -17 -309 -17 -326 0
-9 9 -12 86 -12 283 0 317 2 310 -84 309 -42 0 -71 -8 -123 -35 l-68 -34 -3
-178 -2 -177 58 0 c32 0 63 -5 70 -12 7 -7 12 -40 12 -78 0 -38 -5 -71 -12
-78 -15 -15 -295 -17 -318 -2 -13 8 -16 55 -20 290 -5 267 -6 282 -25 297 -30
22 -92 11 -180 -30 l-75 -36 0 -176 0 -175 58 0 c32 0 63 -5 70 -12 7 -7 12
-40 12 -78 0 -38 -5 -71 -12 -78 -17 -17 -449 -17 -466 0 -7 7 -12 40 -12 78
0 38 5 71 12 78 7 7 38 12 70 12 l58 0 0 210 0 209 -62 3 -63 3 0 80 0 80 165
0 165 0 3 -27 c2 -16 5 -28 8 -28 3 0 24 10 47 22 23 12 60 27 82 34 57 18
178 17 223 -2z m2557 -3 c47 -22 89 -64 106 -106 8 -19 14 -109 17 -252 l4
-223 52 0 c29 0 57 -5 64 -12 7 -7 12 -40 12 -78 0 -38 -5 -71 -12 -78 -17
-17 -299 -17 -316 0 -9 9 -12 83 -12 269 0 145 -4 269 -10 284 -15 40 -54 50
-125 30 -33 -9 -79 -27 -102 -41 l-43 -25 0 -174 0 -175 60 0 c70 0 80 -11 80
-91 0 -90 2 -89 -250 -89 -155 0 -219 3 -228 12 -7 7 -12 40 -12 78 0 38 5 71
12 78 7 7 38 12 70 12 l58 0 0 210 0 209 -67 3 -68 3 0 80 0 80 159 3 c165 3
186 -2 186 -39 0 -19 1 -19 33 -3 103 54 256 70 332 35z m-4497 -288 l2 -293
53 0 c29 0 58 -5 65 -12 7 -7 12 -39 12 -74 0 -96 5 -94 -234 -94 -144 0 -205
3 -214 12 -7 7 -12 40 -12 78 0 38 5 71 12 78 7 7 36 12 65 12 l53 0 0 210 0
210 -53 0 c-29 0 -58 5 -65 12 -13 13 -17 140 -5 152 4 3 77 5 162 4 l156 -3
3 -292z"/>
<path d="M19152 17480 c-79 -16 -164 -81 -240 -183 -28 -38 -57 -89 -63 -111
-5 -23 -19 -62 -29 -88 -11 -26 -20 -58 -20 -71 0 -14 -9 -44 -20 -68 -11 -24
-20 -56 -20 -70 0 -14 -7 -34 -15 -45 -27 -36 -11 -93 45 -159 25 -29 33 -169
16 -269 -23 -130 -55 -158 -211 -180 -61 -9 -127 -16 -146 -16 -30 0 -51 -12
-120 -70 -293 -242 -320 -260 -569 -351 -149 -54 -219 -90 -305 -154 -38 -29
-89 -62 -111 -73 -35 -18 -42 -27 -48 -62 -3 -22 -7 -40 -9 -40 -94 -7 -370
-43 -418 -54 -66 -16 -153 -49 -277 -107 -34 -16 -64 -29 -66 -29 -3 0 -139
-64 -411 -195 -66 -31 -149 -71 -185 -87 -119 -55 -224 -107 -285 -143 -33
-19 -67 -38 -75 -42 -8 -3 -31 -16 -50 -28 -47 -30 -129 -52 -220 -60 -82 -8
-120 -30 -120 -71 0 -12 -7 -27 -15 -34 -12 -10 -15 -36 -15 -116 0 -59 4
-104 10 -104 12 0 30 -66 30 -112 0 -25 -7 -45 -20 -58 -28 -28 -27 -70 3 -71
77 -4 238 4 272 14 47 14 93 59 172 169 64 89 146 159 318 273 191 126 297
173 470 210 44 9 112 28 150 42 135 48 261 80 335 87 69 7 177 26 340 63 122
27 179 36 202 30 13 -4 45 -27 71 -52 52 -49 62 -52 110 -32 18 8 75 24 127
36 52 13 107 27 122 31 54 17 53 4 -8 -250 -55 -224 -60 -284 -45 -558 13
-238 11 -247 -58 -342 l-31 -43 0 -140 c0 -83 -5 -154 -12 -173 -10 -27 -8
-47 10 -120 12 -48 30 -97 40 -108 17 -18 20 -44 26 -191 10 -246 36 -448 76
-585 5 -19 10 -89 10 -155 0 -105 3 -126 24 -170 12 -27 30 -56 39 -64 21 -17
21 -42 2 -149 -14 -80 -14 -84 7 -128 20 -40 21 -48 9 -87 -50 -166 -67 -341
-36 -367 9 -8 45 -11 107 -9 l93 3 -3 -35 c-9 -87 -4 -235 11 -349 10 -69 15
-137 11 -152 -31 -147 41 -269 189 -317 113 -38 387 32 414 105 18 46 25 191
12 248 -10 45 -8 59 10 113 43 127 22 259 -61 382 -48 71 -49 75 -43 126 17
132 -38 360 -134 555 l-56 115 0 200 0 200 35 2 c182 13 295 46 402 117 32 20
117 61 190 91 73 29 149 60 169 69 53 22 115 73 454 371 61 53 187 154 281
225 213 159 289 223 383 322 87 92 127 110 221 106 l65 -3 56 -110 c30 -60 70
-137 89 -170 73 -133 122 -218 173 -302 29 -48 56 -95 60 -103 4 -8 17 -31 28
-50 30 -49 117 -205 148 -265 15 -28 69 -93 123 -147 l97 -98 10 -89 c5 -49
17 -103 25 -119 19 -37 148 -158 243 -228 66 -49 78 -54 125 -54 50 0 54 2
102 53 96 98 170 215 236 372 18 44 56 107 83 140 216 264 349 453 383 541 14
38 15 53 6 93 -15 64 -79 198 -98 205 -29 11 -115 6 -151 -9 -20 -9 -55 -30
-77 -49 -23 -18 -63 -38 -91 -45 -52 -12 -68 -18 -195 -70 -103 -42 -168 -61
-215 -64 l-40 -2 -5 120 c-3 72 -11 129 -19 144 -7 13 -97 107 -201 210 -103
102 -220 226 -259 276 -68 86 -71 92 -71 142 0 66 -23 127 -88 235 -28 46 -60
106 -72 133 -14 34 -46 72 -107 129 -200 188 -225 192 -543 91 -74 -24 -175
-62 -223 -84 -49 -23 -90 -41 -92 -41 -11 0 -266 -148 -346 -201 -114 -75
-301 -213 -319 -234 -7 -8 -19 -15 -26 -15 -16 0 -73 59 -74 76 0 6 25 37 55
70 31 32 72 84 93 114 36 54 37 57 43 180 3 69 11 137 17 151 5 14 48 60 94
102 52 47 93 94 109 124 l24 48 97 5 98 5 68 68 68 68 110 -26 c60 -14 127
-30 149 -37 22 -6 139 -14 260 -18 226 -8 287 -15 435 -51 172 -42 253 -50
570 -59 350 -10 448 -19 595 -55 143 -35 350 -75 422 -82 61 -6 64 -5 85 23
12 16 34 41 48 55 l26 26 69 -14 c93 -19 177 -43 192 -55 30 -24 62 29 41 67
-6 9 -53 38 -106 64 -100 49 -120 71 -85 96 36 27 88 26 179 -3 27 -9 38 -6
78 20 25 17 46 35 46 42 -1 6 -28 28 -60 50 -66 42 -74 61 -32 77 60 23 112
63 112 88 l0 24 -102 -7 c-78 -6 -108 -12 -123 -25 -44 -40 -63 -44 -129 -26
-61 17 -64 16 -107 -3 -24 -11 -86 -45 -138 -76 -108 -64 -94 -63 -281 -6
-172 53 -214 64 -380 104 -335 82 -721 144 -1000 162 -127 8 -164 24 -221 97
-22 28 -49 62 -60 74 l-19 23 -56 -25 c-70 -31 -94 -31 -158 -1 -93 43 -141
63 -181 76 -76 24 -83 28 -90 58 -6 29 -26 42 -68 42 -29 0 -133 56 -185 98
-54 46 -65 51 -282 132 -172 64 -181 69 -199 105 -20 41 -4 85 41 110 21 11
42 29 47 40 31 64 64 156 70 199 7 41 15 55 59 96 65 61 102 68 212 44 84 -18
130 -11 130 19 0 15 -31 47 -45 47 -7 0 -118 50 -174 79 -31 16 -36 38 -22 98
17 75 17 87 -2 153 -27 94 -63 170 -97 205 -18 19 -75 55 -125 81 l-92 47
-134 2 c-74 2 -153 -1 -177 -5z"/>
<path d="M21825 11660 c-59 -9 -163 -43 -218 -71 -100 -52 -309 -207 -384
-286 -12 -13 -29 -23 -38 -23 -18 0 -15 20 10 72 58 120 37 226 -52 263 -132
55 -274 -54 -233 -179 7 -23 35 -57 77 -94 l65 -57 -7 -55 c-13 -100 -30 -124
-196 -260 -83 -69 -171 -141 -194 -160 -23 -19 -95 -78 -160 -130 -197 -159
-634 -515 -860 -700 -485 -398 -465 -384 -493 -374 -38 14 -49 37 -34 77 28
77 3 181 -53 225 -59 47 -158 36 -216 -24 -26 -27 -33 -43 -37 -88 -6 -77 10
-114 88 -202 38 -44 70 -86 70 -94 0 -9 -21 -35 -46 -59 -75 -71 -211 -239
-264 -326 -90 -149 -135 -272 -159 -432 -23 -152 -10 -266 41 -365 l30 -58 48
0 c27 0 50 4 52 9 2 5 28 21 58 36 38 19 83 57 145 124 208 221 220 231 545
443 85 56 218 149 294 207 170 130 214 164 399 314 21 16 53 42 71 56 67 52
419 341 511 419 11 10 88 73 170 142 167 139 193 160 209 175 6 6 75 65 153
133 78 67 170 154 205 193 132 150 183 200 255 249 40 27 75 50 77 50 10 0
237 136 291 174 201 144 319 371 256 493 -38 76 -120 137 -221 166 -69 20
-190 28 -255 17z"/>
<path d="M18256 6299 c-118 -28 -250 -128 -294 -222 -52 -111 -56 -278 -9
-380 69 -152 228 -247 413 -247 197 0 365 112 423 283 57 167 22 347 -88 450
-112 105 -292 152 -445 116z"/>
<path d="M21437 5779 c-55 -13 -90 -33 -125 -74 -38 -42 -46 -71 -39 -131 5
-51 43 -106 88 -129 113 -59 307 -29 457 70 l52 35 0 65 0 64 -82 41 c-124 61
-252 82 -351 59z"/>
<path d="M25242 6329 c-132 -26 -273 -144 -307 -256 l-6 -23 425 0 c234 0 426
4 426 8 0 19 -64 106 -112 153 -109 103 -271 149 -426 118z"/>
<path d="M16476 4135 c-56 -20 -87 -45 -114 -93 l-23 -42 220 0 c147 0 221 4
221 10 0 6 -21 33 -46 60 -69 74 -165 98 -258 65z"/>
<path d="M18754 3851 c-30 -13 -64 -59 -64 -87 0 -13 13 -38 29 -56 28 -31 33
-33 98 -33 56 0 78 6 123 30 49 27 55 34 58 66 3 35 1 38 -45 60 -52 25 -161
36 -199 20z"/>
<path d="M22885 4135 c-43 -15 -125 -94 -125 -119 0 -14 28 -16 221 -16 l221
0 -20 33 c-60 96 -188 140 -297 102z"/>
</g>
</svg>
