<?xml version="1.0" standalone="no"?>
<!DOCTYPE svg PUBLIC "-//W3C//DTD SVG 20010904//EN"
 "http://www.w3.org/TR/2001/REC-SVG-20010904/DTD/svg10.dtd">
<svg version="1.0" xmlns="http://www.w3.org/2000/svg"
 width="998.000000pt" height="998.000000pt" viewBox="0 0 998.000000 998.000000"
 preserveAspectRatio="xMidYMid meet">

<g transform="translate(0.000000,998.000000) scale(0.100000,-0.100000)"
fill="#ad2224" stroke="none">
<path d="M4882 9570 c-79 -16 -164 -81 -240 -183 -28 -38 -57 -89 -63 -111 -5
-23 -19 -62 -29 -88 -11 -26 -20 -58 -20 -71 0 -14 -9 -44 -20 -68 -11 -24
-20 -56 -20 -70 0 -14 -7 -34 -15 -45 -27 -36 -11 -93 45 -159 25 -29 33 -169
16 -269 -23 -130 -55 -158 -211 -180 -61 -9 -127 -16 -146 -16 -30 0 -51 -12
-120 -70 -293 -242 -320 -260 -569 -351 -149 -54 -219 -90 -305 -154 -38 -29
-89 -62 -111 -73 -35 -18 -42 -27 -48 -62 -3 -22 -7 -40 -9 -40 -94 -7 -370
-43 -418 -54 -66 -16 -153 -49 -277 -107 -34 -16 -64 -29 -66 -29 -3 0 -139
-64 -411 -195 -66 -31 -149 -71 -185 -87 -119 -55 -224 -107 -285 -143 -33
-19 -67 -38 -75 -42 -8 -3 -31 -16 -50 -28 -47 -30 -129 -52 -220 -60 -82 -8
-120 -30 -120 -71 0 -12 -7 -27 -15 -34 -12 -10 -15 -36 -15 -116 0 -59 4
-104 10 -104 12 0 30 -66 30 -112 0 -25 -7 -45 -20 -58 -28 -28 -27 -70 3 -71
77 -4 238 4 272 14 47 14 93 59 172 169 64 89 146 159 318 273 191 126 297
173 470 210 44 9 112 28 150 42 135 48 261 80 335 87 69 7 177 26 340 63 122
27 179 36 202 30 13 -4 45 -27 71 -52 52 -49 62 -52 110 -32 18 8 75 24 127
36 52 13 107 27 122 31 54 17 53 4 -8 -250 -55 -224 -60 -284 -45 -558 13
-238 11 -247 -58 -342 l-31 -43 0 -140 c0 -83 -5 -154 -12 -173 -10 -27 -8
-47 10 -120 12 -48 30 -97 40 -108 17 -18 20 -44 26 -191 10 -246 36 -448 76
-585 5 -19 10 -89 10 -155 0 -105 3 -126 24 -170 12 -27 30 -56 39 -64 21 -17
21 -42 2 -149 -14 -80 -14 -84 7 -128 20 -40 21 -48 9 -87 -50 -166 -67 -341
-36 -367 9 -8 45 -11 107 -9 l93 3 -3 -35 c-9 -87 -4 -235 11 -349 10 -69 15
-137 11 -152 -31 -147 41 -269 189 -317 113 -38 387 32 414 105 18 46 25 191
12 248 -10 45 -8 59 10 113 43 127 22 259 -61 382 -48 71 -49 75 -43 126 17
132 -38 360 -134 555 l-56 115 0 200 0 200 35 2 c182 13 295 46 402 117 32 20
117 61 190 91 73 29 149 60 169 69 53 22 115 73 454 371 61 53 187 154 281
225 213 159 289 223 383 322 87 92 127 110 221 106 l65 -3 56 -110 c30 -60 70
-137 89 -170 73 -133 122 -218 173 -302 29 -48 56 -95 60 -103 4 -8 17 -31 28
-50 30 -49 117 -205 148 -265 15 -28 69 -93 123 -147 l97 -98 10 -89 c5 -49
17 -103 25 -119 19 -37 148 -158 243 -228 66 -49 78 -54 125 -54 50 0 54 2
102 53 96 98 170 215 236 372 18 44 56 107 83 140 216 264 349 453 383 541 14
38 15 53 6 93 -15 64 -79 198 -98 205 -29 11 -115 6 -151 -9 -20 -9 -55 -30
-77 -49 -23 -18 -63 -38 -91 -45 -52 -12 -68 -18 -195 -70 -103 -42 -168 -61
-215 -64 l-40 -2 -5 120 c-3 72 -11 129 -19 144 -7 13 -97 107 -201 210 -103
102 -220 226 -259 276 -68 86 -71 92 -71 142 0 66 -23 127 -88 235 -28 46 -60
106 -72 133 -14 34 -46 72 -107 129 -200 188 -225 192 -543 91 -74 -24 -175
-62 -223 -84 -49 -23 -90 -41 -92 -41 -11 0 -266 -148 -346 -201 -114 -75
-301 -213 -319 -234 -7 -8 -19 -15 -26 -15 -16 0 -73 59 -74 76 0 6 25 37 55
70 31 32 72 84 93 114 36 54 37 57 43 180 3 69 11 137 17 151 5 14 48 60 94
102 52 47 93 94 109 124 l24 48 97 5 98 5 68 68 68 68 110 -26 c60 -14 127
-30 149 -37 22 -6 139 -14 260 -18 226 -8 287 -15 435 -51 172 -42 253 -50
570 -59 350 -10 448 -19 595 -55 143 -35 350 -75 422 -82 61 -6 64 -5 85 23
12 16 34 41 48 55 l26 26 69 -14 c93 -19 177 -43 192 -55 30 -24 62 29 41 67
-6 9 -53 38 -106 64 -100 49 -120 71 -85 96 36 27 88 26 179 -3 27 -9 38 -6
78 20 25 17 46 35 46 42 -1 6 -28 28 -60 50 -66 42 -74 61 -32 77 60 23 112
63 112 88 l0 24 -102 -7 c-78 -6 -108 -12 -123 -25 -44 -40 -63 -44 -129 -26
-61 17 -64 16 -107 -3 -24 -11 -86 -45 -138 -76 -108 -64 -94 -63 -281 -6
-172 53 -214 64 -380 104 -335 82 -721 144 -1000 162 -127 8 -164 24 -221 97
-22 28 -49 62 -60 74 l-19 23 -56 -25 c-70 -31 -94 -31 -158 -1 -93 43 -141
63 -181 76 -76 24 -83 28 -90 58 -6 29 -26 42 -68 42 -29 0 -133 56 -185 98
-54 46 -65 51 -282 132 -172 64 -181 69 -199 105 -20 41 -4 85 41 110 21 11
42 29 47 40 31 64 64 156 70 199 7 41 15 55 59 96 65 61 102 68 212 44 84 -18
130 -11 130 19 0 15 -31 47 -45 47 -7 0 -118 50 -174 79 -31 16 -36 38 -22 98
17 75 17 87 -2 153 -27 94 -63 170 -97 205 -18 19 -75 55 -125 81 l-92 47
-134 2 c-74 2 -153 -1 -177 -5z"/>
<path d="M7555 3750 c-59 -9 -163 -43 -218 -71 -100 -52 -309 -207 -384 -286
-12 -13 -29 -23 -38 -23 -18 0 -15 20 10 72 58 120 37 226 -52 263 -132 55
-274 -54 -233 -179 7 -23 35 -57 77 -94 l65 -57 -7 -55 c-13 -100 -30 -124
-196 -260 -83 -69 -171 -141 -194 -160 -23 -19 -95 -78 -160 -130 -197 -159
-634 -515 -860 -700 -485 -398 -465 -384 -493 -374 -38 14 -49 37 -34 77 28
77 3 181 -53 225 -59 47 -158 36 -216 -24 -26 -27 -33 -43 -37 -88 -6 -77 10
-114 88 -202 38 -44 70 -86 70 -94 0 -9 -21 -35 -46 -59 -75 -71 -211 -239
-264 -326 -90 -149 -135 -272 -159 -432 -23 -152 -10 -266 41 -366 l30 -57 48
0 c27 0 50 4 52 9 2 5 28 21 58 36 38 19 83 57 145 124 208 221 220 231 545
443 85 56 218 149 294 207 170 130 214 164 399 314 21 16 53 42 71 56 67 52
419 341 511 419 11 10 88 73 170 142 167 139 193 160 209 175 6 6 75 65 153
133 78 67 170 154 205 193 132 150 183 200 255 249 40 27 75 50 77 50 10 0
237 136 291 174 201 144 319 371 256 493 -38 76 -120 137 -221 166 -69 20
-190 28 -255 17z"/>
</g>
</svg>
